PathFileType	4	(X/Y/Z)	C:\Users\Graham\Documents\MATLAB\MOtoNMS_v2_2\MyData\ElaboratedData\S2\17-05-16\staticElaborations\Static1\Static1\\Static1.trc
DataRate	CameraRate	NumFrames	NumMarkers	Units	OrigDataRate	DataStartFrame
100	100	6	38	mm	100	2
Frame#	Time	V_Sacral			R_ASIS			L_ASIS			R_Knee_Lat			R_Knee_Med			R_Thigh_Upper			R_Thigh_Front			R_Thigh_Rear			L_Knee_Lat			L_Knee_Med			L_Thigh_Upper			L_Thigh_Front			L_Thigh_Rear			R_Ankle_Lat			R_Ankle_Med			R_Shank_Upper			R_Shank_Front			R_Shank_Rear			L_Ankle_Lat			L_Ankle_Med			L_Shank_Upper			L_Shank_Front			L_Shank_Rear			R_Heel			R_MTP1			R_MTP5			L_Heel			L_MTP1			L_MTP5			Clavicle			R_Acromium			L_Acromium			LAJC			RAJC			LHJC			RHJC			LKJC			RKJC		
		X1	Y1	Z1	X2	Y2	Z2	X3	Y3	Z3	X4	Y4	Z4	X5	Y5	Z5	X6	Y6	Z6	X7	Y7	Z7	X8	Y8	Z8	X9	Y9	Z9	X10	Y10	Z10	X11	Y11	Z11	X12	Y12	Z12	X13	Y13	Z13	X14	Y14	Z14	X15	Y15	Z15	X16	Y16	Z16	X17	Y17	Z17	X18	Y18	Z18	X19	Y19	Z19	X20	Y20	Z20	X21	Y21	Z21	X22	Y22	Z22	X23	Y23	Z23	X24	Y24	Z24	X25	Y25	Z25	X26	Y26	Z26	X27	Y27	Z27	X28	Y28	Z28	X29	Y29	Z29	X30	Y30	Z30	X31	Y31	Z31	X32	Y32	Z32	X33	Y33	Z33	X34	Y34	Z34	X35	Y35	Z35	X36	Y36	Z36	X37	Y37	Z37	X38	Y38	Z38	

148	1.470000	159.265010	1005.616421	29.609567	366.043853	1017.432232	149.795116	355.157660	1026.639244	-85.676799	234.842200	519.112348	217.734223	242.153801	514.481106	109.631640	380.878363	740.779950	169.127697	333.732250	636.894309	139.326221	319.197718	648.758716	200.776138	251.661559	535.210654	-146.574399	244.107824	509.507658	-36.235839	356.440866	782.307560	-139.046109	351.390203	666.810053	-112.225448	298.812706	671.223621	-159.313492	187.808589	106.725560	244.212916	219.962219	107.800387	159.069753	265.407827	374.488434	220.343991	255.398126	258.987931	187.415516	213.715780	262.502517	254.007879	212.957754	90.969554	-182.710073	252.838856	113.464235	-101.545703	276.268488	357.161608	-163.022937	271.408775	245.693111	-129.121383	224.933221	250.698292	-190.372884	123.277920	62.970819	194.038808	354.813750	67.676466	200.296998	333.690695	51.241971	282.545951	147.208280	63.836096	-129.740097	388.561741	64.275519	-158.042336	354.531416	50.270819	-235.522217	329.700205	1392.001866	32.712231	232.538540	1441.671298	226.756579	265.936778	1442.475793	-170.436688	232.898305	102.216895	-142.127888	203.885404	107.262973	201.641335	305.219072	939.158204	-53.924986	313.077704	932.511756	116.059788	247.884692	522.359156	-91.405119	238.498000	516.796727	163.682932	
149	1.480000	159.248013	1005.613316	29.612180	366.030832	1017.434310	149.798567	355.142941	1026.651874	-85.670065	234.840004	519.110793	217.738800	242.148143	514.474783	109.631194	380.870768	740.787404	169.137426	333.735447	636.895249	139.336839	319.187512	648.759653	200.781174	251.659362	535.211934	-146.570347	244.106107	509.508156	-36.231449	356.430853	782.317622	-139.040824	351.386533	666.818755	-112.225210	298.806981	671.232766	-159.312622	187.809292	106.724282	244.213380	219.962375	107.799605	159.069796	265.406592	374.487156	220.345830	255.394917	258.983348	187.416072	213.715000	262.500306	254.009163	212.958105	90.970545	-182.709368	252.842236	113.467599	-101.542701	276.268469	357.163010	-163.020709	271.408840	245.694125	-129.120734	224.933621	250.699541	-190.371237	123.276559	62.971387	194.036898	354.813501	67.677119	200.297058	333.691219	51.242407	282.545951	147.208404	63.837644	-129.741880	388.560134	64.273514	-158.043452	354.531038	50.270243	-235.522180	329.624825	1392.020518	32.686984	232.519549	1441.691482	226.747409	265.833486	1442.486794	-170.453433	232.900171	102.219072	-142.126035	203.885834	107.261943	201.641588	305.207997	939.167518	-53.922531	313.067863	932.513446	116.060046	247.882735	522.360045	-91.400898	238.494074	516.792788	163.684997	
150	1.490000	159.234172	1005.606841	29.619117	366.024117	1017.437253	149.799678	355.127092	1026.664542	-85.665764	234.846378	519.108853	217.743678	242.150217	514.470608	109.632244	380.870432	740.794539	169.146238	333.745940	636.896203	139.346165	319.188752	648.761913	200.785381	251.655927	535.212956	-146.565113	244.106101	509.508474	-36.225845	356.421217	782.326800	-139.038239	351.382969	666.826966	-112.226594	298.800543	671.241298	-159.311519	187.810962	106.723080	244.214058	219.962826	107.799285	159.070980	265.412933	374.485959	220.347851	255.394333	258.977078	187.416457	213.718553	262.497555	254.010904	212.958372	90.971438	-182.707792	252.843354	113.467958	-101.545522	276.267616	357.164647	-163.018483	271.408813	245.695001	-129.120085	224.933070	250.701013	-190.368962	123.274812	62.972612	194.035098	354.813778	67.677343	200.296884	333.692621	51.242710	282.545628	147.208936	63.839054	-129.743586	388.559041	64.271903	-158.044451	354.531132	50.269318	-235.521388	329.552047	1392.038060	32.656348	232.506320	1441.701565	226.736717	265.720181	1442.497450	-170.474320	232.900863	102.219698	-142.126657	203.886894	107.261182	201.642519	305.198522	939.175892	-53.920676	313.064989	932.514794	116.059745	247.881014	522.360715	-91.395479	238.498297	516.789730	163.687961	
151	1.500000	159.222904	1005.597341	29.630488	366.023260	1017.441278	149.798247	355.109380	1026.677055	-85.663940	234.860937	519.106386	217.748642	242.160985	514.469706	109.635174	380.877154	740.801193	169.153439	333.763220	636.897291	139.353657	319.201659	648.765692	200.788572	251.650947	535.213797	-146.558279	244.108179	509.508483	-36.218589	356.411357	782.335185	-139.038677	351.378863	666.834662	-112.229809	298.792692	671.249196	-159.310205	187.813468	106.721877	244.214892	219.963470	107.799367	159.073167	265.426781	374.484846	220.350035	255.396579	258.969352	187.416711	213.726316	262.494276	254.012994	212.958458	90.972257	-182.705249	252.842965	113.465998	-101.552261	276.265529	357.166538	-163.016110	271.408643	245.695762	-129.119362	224.931135	250.702729	-190.365758	123.272762	62.974395	194.033481	354.814668	67.677287	200.296535	333.694744	51.242911	282.544995	147.209865	63.840232	-129.744973	388.558546	64.270902	-158.045284	354.531602	50.268081	-235.519925	329.482835	1392.054987	32.620194	232.498223	1441.701948	226.724136	265.597986	1442.507522	-170.499671	232.900711	102.219127	-142.128755	203.888469	107.260622	201.644029	305.189816	939.183323	-53.919272	313.068456	932.516092	116.058931	247.879563	522.361140	-91.388434	238.510961	516.788046	163.691908	
152	1.510000	159.213677	1005.585472	29.646021	366.027632	1017.446461	149.794091	355.089349	1026.689261	-85.664677	234.882827	519.103340	217.753416	242.181198	514.473204	109.640339	380.890330	740.807299	169.158419	333.786558	636.898677	139.358856	319.225559	648.770930	200.790560	251.644285	535.214527	-146.549462	244.112861	509.508078	-36.209255	356.400658	782.342881	-139.042368	351.373694	666.841866	-112.234961	298.782815	671.256482	-159.308738	187.816632	106.720640	244.215795	219.964225	107.799763	159.076113	265.447536	374.483818	220.352281	255.401774	258.960620	187.416862	213.737925	262.490616	254.015247	212.958257	90.973022	-182.701688	252.841668	113.462280	-101.561287	276.261904	357.168658	-163.013453	271.408328	245.696407	-129.118490	224.927386	250.704684	-190.361299	123.270591	62.976576	194.032172	354.816159	67.677098	200.296079	333.697344	51.243066	282.544108	147.211168	63.841090	-129.745799	388.558597	64.270620	-158.045923	354.532317	50.266589	-235.517959	329.417853	1392.071982	32.578425	232.494150	1441.693787	226.709173	265.468404	1442.516873	-170.529730	232.899963	102.217651	-142.131487	203.890429	107.260201	201.645954	305.181115	939.189899	-53.918353	313.077377	932.517593	116.057506	247.878573	522.361302	-91.379358	238.532012	516.788272	163.696877	
153	1.520000	159.206029	1005.572138	29.665066	366.036390	1017.452752	149.787074	355.066863	1026.701061	-85.668085	234.910840	519.099776	217.757697	242.211192	514.481991	109.647984	380.909007	740.812902	169.160738	333.815079	636.900552	139.361459	319.258904	648.777310	200.791191	251.635997	535.215195	-146.538372	244.120737	509.507186	-36.197492	356.388561	782.350003	-139.049395	351.367151	666.848640	-112.241999	298.770484	671.263204	-159.307186	187.820260	106.719391	244.216680	219.965041	107.800368	159.079503	265.474128	374.482865	220.354419	255.409907	258.951486	187.416918	213.752807	262.486826	254.017422	212.957678	90.973744	-182.697107	252.839767	113.457099	-101.571607	276.256599	357.170938	-163.010404	271.407926	245.696906	-129.117400	224.921471	250.706846	-190.355276	123.268561	62.978943	194.031349	354.818132	67.676901	200.295587	333.700132	51.243238	282.543053	147.212807	63.841571	-129.745855	388.559035	64.271038	-158.046357	354.533136	50.264924	-235.515713	329.357420	1392.089840	32.531033	232.492610	1441.678948	226.691275	265.333186	1442.525433	-170.564639	232.898722	102.215421	-142.134357	203.892651	107.259880	201.648092	305.171795	939.195797	-53.918143	313.090617	932.519510	116.055230	247.878367	522.361190	-91.367932	238.561016	516.790883	163.702841	
